<?xml version="1.0" encoding="UTF-8"?>
<svg width="50px" height="50px" viewBox="0 0 50 50" version="1.1" xmlns="http://www.w3.org/2000/svg" xmlns:xlink="http://www.w3.org/1999/xlink">
    <!-- Generator: Sketch 62 (91390) - https://sketch.com -->
    <title>icon / icon-back</title>
    <desc>Created with Sketch.</desc>
    <g id="icon-/-icon-back" stroke="none" stroke-width="1" fill="none" fill-rule="evenodd">
        <path d="M20.2081608,16.4970748 C20.6652469,16.9541609 20.6646387,17.7037787 20.2109455,18.157472 L14.621214,23.7484664 L38.6869459,23.7469026 C39.2759551,23.7469026 39.7734773,24.1914181 39.8459656,24.7708462 L39.8502997,24.8437524 L39.8451084,24.8982569 C39.7729576,25.4724787 39.2780025,25.9129405 38.6850609,25.9129405 L14.6230785,25.9145042 L20.2109455,31.5023712 C20.6337634,31.9251891 20.6702795,32.5931614 20.3004473,33.0592964 L20.2022799,33.1689951 L20.1014266,33.258475 C19.6462721,33.6163348 18.9678964,33.585686 18.5492944,33.1670839 L10.212,24.829 L18.5492944,16.4927593 C18.9746634,16.0673902 19.6423252,16.037628 20.1051858,16.4051971 L20.2081608,16.4970748 Z" id="Path" fill="#000000" fill-rule="nonzero"></path>
    </g>
</svg>