<?xml version="1.0" encoding="UTF-8"?>
<svg width="50px" height="50px" viewBox="0 0 50 50" version="1.1" xmlns="http://www.w3.org/2000/svg" xmlns:xlink="http://www.w3.org/1999/xlink">
    <!-- Generator: Sketch 62 (91390) - https://sketch.com -->
    <title>icon / icon-link</title>
    <desc>Created with Sketch.</desc>
    <g id="icon-/-icon-link" stroke="none" stroke-width="1" fill="none" fill-rule="evenodd">
        <path d="M25.0044225,13 C25.5149903,13 25.9357924,13.3827202 25.993302,13.8826674 L26,14 C26,14.5522847 25.555163,15 25.0044225,15 L15,15 C14.448,15 14,15.449 14,16 L14,36 C14,36.551 14.448,37 15,37 L35,37 C35.552,37 36,36.551 36,36 L36,25.9955775 C36,25.4850097 36.3827202,25.0642076 36.8826674,25.006698 L37,25 C37.5522847,25 38,25.444837 38,25.9955775 L38,36 C38,37.654 36.654,39 35,39 L15,39 C13.346,39 12,37.654 12,36 L12,16 C12,14.346 13.346,13 15,13 L25.0044225,13 Z M40,11 L40,20.0046024 C40,20.5543453 39.5561352,21 39,21 C38.4477153,21 38,20.5469637 38,20.0029699 L38,14.313 L25.3603622,26.9546378 C25.0017872,27.3132128 24.4348532,27.3376761 24.0468795,27.0359821 L24.002,26.996 L23.9634122,26.9524406 C23.6598994,26.5620003 23.6863014,25.9986986 24.0463622,25.6386378 L36.684,13 L30.9970301,13 C30.4857174,13 30.0643013,12.6172798 30.0067078,12.1173326 L30,12 C30,11.4477153 30.4556644,11 30.9953976,11 L40,11 Z" id="icon-link" fill="#000000"></path>
    </g>
</svg>