<svg width="50px" height="50px" viewBox="0 0 50 50" version="1.1" xmlns="http://www.w3.org/2000/svg" xmlns:xlink="http://www.w3.org/1999/xlink">
    <g id="icon-/-icon-linkedin" stroke="none" stroke-width="1" fill="none" fill-rule="evenodd">
        <path d="M36.0766688,12 C37.1369205,12 38,12.8392222 38,13.8748889 L38,13.8748889 L38,36.1236667 C38,37.1593333 37.1369205,38 36.0766688,38 L36.0766688,38 L13.9175533,38 C12.8594683,38 12,37.1593333 12,36.1236667 L12,36.1236667 L12,13.8748889 C12,12.8392222 12.8594683,12 13.9175533,12 L13.9175533,12 Z M19.7127531,21.7471833 L15.8523681,21.7471833 L15.8523681,34.1549611 L19.7127531,34.1549611 L19.7127531,21.7471833 Z M29.5298314,21.4395167 C27.6541682,21.4395167 26.3952999,22.4679611 25.8810634,23.4436833 L25.8810634,23.4436833 L25.8283397,23.4436833 L25.8283397,21.7471833 L22.1319037,21.7471833 L22.1319037,34.1549611 L25.9836218,34.1549611 L25.9836218,28.0182389 C25.9836218,26.3990167 26.2898525,24.8310722 28.2962416,24.8310722 C30.2751854,24.8310722 30.3004639,26.6821278 30.3004639,28.1207944 L30.3004639,34.1549611 L34.1557932,34.1549611 L34.1557932,27.3501833 C34.1557932,24.0084611 33.4342732,21.4395167 29.5298314,21.4395167 Z M17.783644,15.5794056 C16.5449985,15.5794056 15.5461374,16.5811278 15.5461374,17.8154056 C15.5461374,19.0504056 16.5449985,20.0521278 17.783644,20.0521278 C19.0172338,20.0521278 20.0189839,19.0504056 20.0189839,17.8154056 C20.0189839,16.5811278 19.0172338,15.5794056 17.783644,15.5794056 Z" id="icon-linkedin" fill="#000000"></path>
    </g>
</svg>