<?xml version="1.0" encoding="UTF-8"?>
<svg width="180px" height="40px" viewBox="0 0 180 40" version="1.1" xmlns="http://www.w3.org/2000/svg" xmlns:xlink="http://www.w3.org/1999/xlink">
    <!-- Generator: Sketch 62 (91390) - https://sketch.com -->
    <title>logo / logo-myoncare</title>
    <desc>Created with Sketch.</desc>
    <defs>
        <linearGradient x1="50%" y1="117.933498%" x2="50%" y2="14.6013568%" id="linearGradient-1">
            <stop stop-color="#FFD97E" offset="0%"></stop>
            <stop stop-color="#E52682" offset="100%"></stop>
        </linearGradient>
    </defs>
    <g id="logo-/-logo-myoncare" stroke="none" stroke-width="1" fill="none" fill-rule="evenodd">
        <g id="logo-myoncare" transform="translate(5.000000, 9.000000)" fill-rule="nonzero">
            <path d="M15.3692962,-1.99840144e-14 C19.2458104,-1.99840144e-14 22.3565804,3.37315503 22.3565804,7.49859537 C22.3565804,9.26336758 21.7855303,10.9379136 20.7572638,12.273129 C20.1863454,13.0144729 17.6464599,15.7666403 13.058568,20.6201853 C12.0832078,21.6520206 10.4506935,21.7028387 9.41224473,20.7336901 C9.37298376,20.6970492 9.33488739,20.6591955 9.29801165,20.6201845 C4.71012036,15.7666402 2.17023503,13.0144729 1.59931663,12.273129 C0.571050146,10.9379136 2.22394281e-14,9.26336758 2.22394281e-14,7.49859537 C2.22394281e-14,3.37317956 3.11074669,-1.99840144e-14 6.98715304,-1.99840144e-14 C8.52626948,-1.99840144e-14 9.98568563,0.536381752 11.1782763,1.49718839 C12.3708455,0.536383495 13.8302288,-1.99840144e-14 15.3692962,-1.99840144e-14 Z M15.3692962,1.70878566 C14.2845773,1.70878566 13.2501598,2.07071804 12.3812321,2.73070299 C13.4009483,4.05752006 13.9744373,5.73083235 13.9744373,7.49859537 C13.9744373,9.12536459 12.7425027,10.4762362 11.1782902,10.4762362 C9.61407775,10.4762362 8.38214313,9.12536459 8.38214313,7.49859537 C8.38214313,5.73083955 8.95562776,4.05752915 9.97509149,2.7308564 C9.10637331,2.07071877 8.07192295,1.70878566 6.98715304,1.70878566 C4.09570343,1.70878566 1.71973696,4.28519652 1.71973696,7.49859537 C1.71973696,8.88791293 2.1663424,10.1975376 2.96507169,11.2346964 C3.48158146,11.9053901 6.03674748,14.6741152 10.5515307,19.4503183 C10.5638226,19.463322 10.5765214,19.4759399 10.5896084,19.4881535 C10.9357579,19.8112029 11.4799295,19.7942636 11.8050493,19.4503187 C16.3198328,14.6741154 18.874999,11.9053901 19.3915087,11.2346964 C20.190238,10.1975376 20.6368435,8.88791293 20.6368435,7.49859537 C20.6368435,4.28517705 18.2608598,1.70878566 15.3692962,1.70878566 Z M10.1018801,7.49859537 C10.1018801,8.217142 10.6037369,8.76745053 11.1782902,8.76745053 C11.7528435,8.76745053 12.2547003,8.217142 12.2547003,7.49859537 C12.2547003,6.20566315 11.8674907,4.98423351 11.1782858,3.99181761 C10.4890874,4.98423706 10.1018801,6.20566743 10.1018801,7.49859537 Z" id="heart" fill="url(#linearGradient-1)"></path>
            <g id="myoncare" transform="translate(28.616423, 3.571429)">
                <path d="M1.79242826,1.96257612 C2.2821652,1.33767314 2.86004613,0.854356987 3.52608837,0.512613167 C4.19213062,0.170869347 5.01487635,-2.94695144e-14 5.99435024,-2.94695144e-14 C7.11095047,-2.94695144e-14 8.06102589,0.234335104 8.844605,0.703012343 C9.62818412,1.17168958 10.2452434,1.85516697 10.6958014,2.75346501 C11.1463594,1.91375162 11.8074943,1.24492018 12.6792261,0.746950615 C13.5509579,0.248981048 14.5549036,-2.94695144e-14 15.6910933,-2.94695144e-14 C16.4746724,-2.94695144e-14 17.1994722,0.136695478 17.8655144,0.410090534 C18.5315567,0.68348559 19.1094376,1.08380806 19.5991745,1.61106995 C20.0889115,2.13833185 20.4757979,2.79739933 20.7598453,3.58829217 C21.0438927,4.37918501 21.1859143,5.30187948 21.1859143,6.35640327 L21.1859143,14.8804279 C21.1859143,15.3100487 20.9704333,15.5248559 20.5394648,15.5248559 L20.0399356,15.5248559 C19.6089671,15.5248559 19.3934861,15.3100487 19.3934861,14.8804279 L19.3934861,6.64932508 C19.3934861,5.69244238 19.2857455,4.89667942 19.0702613,4.26201233 C18.854777,3.62734524 18.5609393,3.11961918 18.1887392,2.73881892 C17.8165391,2.35801866 17.3904744,2.08950969 16.9105322,1.93328394 C16.43059,1.7770582 15.9261685,1.6989465 15.3972526,1.6989465 C14.9466946,1.6989465 14.491246,1.7770582 14.0308933,1.93328394 C13.5705406,2.08950969 13.1493731,2.35801866 12.7673783,2.73881892 C12.3853835,3.11961918 12.0768539,3.62734524 11.8417801,4.26201233 C11.6067064,4.89667942 11.4891713,5.69244238 11.4891713,6.64932508 L11.4891713,14.8804279 C11.4891713,15.3100487 11.2736903,15.5248559 10.8427217,15.5248559 L10.3431926,15.5248559 C9.91222405,15.5248559 9.69674303,15.3100487 9.69674303,14.8804279 L9.69674303,6.64932508 C9.69674303,5.69244238 9.57920792,4.89667942 9.34413419,4.26201233 C9.10906046,3.62734524 8.80542811,3.11961918 8.43322803,2.73881892 C8.06102795,2.35801866 7.6349632,2.08950969 7.15502099,1.93328394 C6.67507879,1.7770582 6.19024648,1.6989465 5.70050954,1.6989465 C5.24995155,1.6989465 4.79450302,1.7770582 4.33415029,1.93328394 C3.87379756,2.08950969 3.45263011,2.35801866 3.07063529,2.73881892 C2.68864048,3.11961918 2.38011083,3.62246326 2.14503709,4.24736624 C1.90996336,4.87226923 1.79242826,5.6631502 1.79242826,6.6200329 L1.79242826,14.8804279 C1.79242826,15.3100487 1.57694723,15.5248559 1.14597872,15.5248559 L0.646449535,15.5248559 C0.215481024,15.5248559 -5.51823244e-13,15.3100487 -5.51823244e-13,14.8804279 L-5.51823244e-13,0.937349791 C-5.51823244e-13,0.507728989 0.215481024,0.29292181 0.646449535,0.29292181 L1.14597872,0.29292181 C1.57694723,0.29292181 1.79242826,0.507728989 1.79242826,0.937349791 L1.79242826,1.96257612 Z M29.6485264,20.6509876 C29.589758,20.7681569 29.5114012,20.8706785 29.4134539,20.9585555 C29.3155065,21.0464325 29.1685876,21.0903703 28.9726928,21.0903703 L28.3850114,21.0903703 C28.2282956,21.0903703 28.0911713,21.0317865 27.9736344,20.9146172 C27.8560976,20.7974479 27.79733,20.6607524 27.79733,20.5045267 C27.79733,20.4068856 27.8560976,20.2116063 27.9736344,19.9186831 L30.2362078,14.6460905 L24.6238505,1.46460905 C24.5063136,1.17168577 24.4475461,0.97640652 24.4475461,0.878765429 C24.4475461,0.722539683 24.5063136,0.585844205 24.6238505,0.468674895 C24.7413873,0.351505586 24.8785116,0.29292181 25.0352275,0.29292181 L25.6522929,0.29292181 C25.8481877,0.29292181 25.9951066,0.336859642 26.093054,0.424736624 C26.1910014,0.512613606 26.2693581,0.615135214 26.3281265,0.732304524 L31.2646502,12.3320082 L36.3187103,0.732304524 C36.3774787,0.615135214 36.4558354,0.512613606 36.5537828,0.424736624 C36.6517302,0.336859642 36.7986491,0.29292181 36.9945439,0.29292181 L37.5822253,0.29292181 C37.7389411,0.29292181 37.8760654,0.351505586 37.9936022,0.468674895 C38.1111391,0.585844205 38.1699066,0.722539683 38.1699066,0.878765429 C38.1699066,0.97640652 38.1111391,1.17168577 37.9936022,1.46460905 L29.6485264,20.6509876 Z" id="my" fill="#282827"></path>
                <path d="M47.2495842,-3.92926858e-14 C48.307416,-3.92926858e-14 49.2379022,0.170869347 50.0410708,0.512613167 C50.8442394,0.854356987 51.515169,1.3230272 52.0538796,1.91863785 C52.5925903,2.51424851 53.0039631,3.22213581 53.2880106,4.04232097 C53.572058,4.86250614 53.7336687,5.74126278 53.7728477,6.67861726 C53.7728477,6.83484301 53.777745,7.0203583 53.7875397,7.2351687 C53.7973345,7.4499791 53.8022318,7.67455024 53.8022318,7.90888886 C53.8022318,8.14322748 53.7973345,8.3726806 53.7875397,8.59725511 C53.777745,8.82182962 53.7728477,9.00246293 53.7728477,9.13916046 C53.7336687,10.0765149 53.572058,10.9552716 53.2880106,11.7754567 C53.0039631,12.5956419 52.5925903,13.3035292 52.0538796,13.8991399 C51.515169,14.4947505 50.8442394,14.9634207 50.0410708,15.3051646 C49.2379022,15.6469084 48.307416,15.8177777 47.2495842,15.8177777 C46.1917524,15.8177777 45.2612662,15.6469084 44.4580976,15.3051646 C43.654929,14.9634207 42.9839994,14.4947505 42.4452888,13.8991399 C41.9065782,13.3035292 41.490308,12.5956419 41.1964658,11.7754567 C40.9026237,10.9552716 40.7459102,10.0765149 40.7263207,9.13916046 C40.7263207,9.00246293 40.7214234,8.82182962 40.7116287,8.59725511 C40.7018339,8.3726806 40.6969366,8.14322748 40.6969366,7.90888886 C40.6969366,7.67455024 40.7018339,7.4499791 40.7116287,7.2351687 C40.7214234,7.0203583 40.7263207,6.83484301 40.7263207,6.67861726 C40.7459102,5.74126278 40.9026237,4.86250614 41.1964658,4.04232097 C41.490308,3.22213581 41.9065782,2.51424851 42.4452888,1.91863785 C42.9839994,1.3230272 43.654929,0.854356987 44.4580976,0.512613167 C45.2612662,0.170869347 46.1917524,-3.92926858e-14 47.2495842,-3.92926858e-14 Z M51.9804194,6.82507817 C51.921651,5.14565139 51.4613052,3.87145426 50.5993682,3.00244855 C49.7374311,2.13344284 48.6208477,1.6989465 47.2495842,1.6989465 C45.8783208,1.6989465 44.7617373,2.13344284 43.8998003,3.00244855 C43.0378632,3.87145426 42.5775174,5.14565139 42.518749,6.82507817 C42.4991595,7.11800144 42.4893649,7.47926806 42.4893649,7.90888886 C42.4893649,8.33850966 42.4991595,8.69977628 42.518749,8.99269956 C42.5775174,10.6721263 43.0378632,11.9463235 43.8998003,12.8153292 C44.7617373,13.6843349 45.8783208,14.1188312 47.2495842,14.1188312 C48.6208477,14.1188312 49.7374311,13.6843349 50.5993682,12.8153292 C51.4613052,11.9463235 51.921651,10.6721263 51.9804194,8.99269956 C52.0000089,8.69977628 52.0098035,8.33850966 52.0098035,7.90888886 C52.0098035,7.47926806 52.0000089,7.11800144 51.9804194,6.82507817 Z M70.5511515,14.8804279 C70.5511515,15.3100487 70.3356705,15.5248559 69.904702,15.5248559 L69.4051728,15.5248559 C68.9742043,15.5248559 68.7587233,15.3100487 68.7587233,14.8804279 L68.7587233,6.70790944 C68.7587233,5.14565198 68.3767342,3.92027466 67.6127446,3.03174073 C66.8487549,2.1432068 65.7321714,1.6989465 64.2629606,1.6989465 C62.8525182,1.6989465 61.7261401,2.13832482 60.8837926,3.01709464 C60.041445,3.89586446 59.6202776,5.12612376 59.6202776,6.70790944 L59.6202776,14.8804279 C59.6202776,15.3100487 59.4047966,15.5248559 58.9738281,15.5248559 L58.4742989,15.5248559 C58.0433304,15.5248559 57.8278493,15.3100487 57.8278493,14.8804279 L57.8278493,0.937349791 C57.8278493,0.507728989 58.0433304,0.29292181 58.4742989,0.29292181 L58.9738281,0.29292181 C59.4047966,0.29292181 59.6202776,0.507728989 59.6202776,0.937349791 L59.6202776,2.3140823 C60.1491935,1.63059466 60.785842,1.07404878 61.5302421,0.644427981 C62.2746423,0.214807179 63.2834853,-3.92926858e-14 64.5568013,-3.92926858e-14 C65.5558647,-3.92926858e-14 66.4275834,0.165987366 67.1719835,0.497967076 C67.9163837,0.829946787 68.5383403,1.28885303 69.037872,1.87469958 C69.5374036,2.46054613 69.9144954,3.15378748 70.1691586,3.95444443 C70.4238219,4.75510138 70.5511515,5.62409406 70.5511515,6.56144854 L70.5511515,14.8804279 Z" id="on" fill="#D62775"></path>
                <path d="M76.2516611,6.88366253 C76.2320716,7.1765858 76.222277,7.5183245 76.222277,7.90888886 C76.222277,8.29945323 76.2320716,8.64119192 76.2516611,8.93411519 C76.3104295,10.7697677 76.7756726,12.0927847 77.6474044,12.9032057 C78.5191362,13.7136268 79.6210278,14.1188312 80.9531123,14.1188312 C81.9913546,14.1188312 82.8679706,13.8991421 83.5829865,13.4597572 C84.2980024,13.0203722 84.8611915,12.2441372 85.2725705,11.1310288 C85.3705179,10.8966901 85.4586692,10.7355848 85.5370271,10.6477078 C85.615385,10.5598308 85.7623039,10.515893 85.9777882,10.515893 L86.3891652,10.515893 C86.5654705,10.515893 86.7221839,10.5744767 86.8593103,10.6916461 C86.9964366,10.8088154 87.0552042,10.9650388 87.0356147,11.1603209 C87.0160252,11.6875828 86.8837982,12.2246008 86.6389298,12.7713909 C86.3940613,13.318181 86.0218668,13.8210251 85.5223351,14.2799382 C85.0228034,14.7388514 84.3959495,15.1098819 83.6417546,15.3930411 C82.8875597,15.6762003 81.9913546,15.8177777 80.9531123,15.8177777 C78.8766276,15.8177777 77.2899037,15.222176 76.1928929,14.0309547 C75.0958822,12.8397334 74.5180013,11.1896237 74.4592328,9.0805761 C74.4396434,8.78765283 74.4298488,8.39709432 74.4298488,7.90888886 C74.4298488,7.4206834 74.4396434,7.0301249 74.4592328,6.73720162 C74.5180013,4.62815405 75.0958822,2.97804435 76.1928929,1.78682304 C77.2899037,0.595601724 78.8766276,-3.92926858e-14 80.9531123,-3.92926858e-14 C81.9913546,-3.92926858e-14 82.8875597,0.141577459 83.6417546,0.424736624 C84.3959495,0.707895789 85.0228034,1.07892637 85.5223351,1.5378395 C86.0218668,1.99675263 86.3940613,2.49959671 86.6389298,3.04638682 C86.8837982,3.59317693 87.0160252,4.13019488 87.0356147,4.65745677 C87.0552042,4.85273896 86.9964366,5.00896236 86.8593103,5.12613167 C86.7221839,5.24330098 86.5654705,5.30188475 86.3891652,5.30188475 L85.9777882,5.30188475 C85.7623039,5.30188475 85.615385,5.25794692 85.5370271,5.17006994 C85.4586692,5.08219296 85.3705179,4.92108757 85.2725705,4.68674895 C84.8611915,3.57364051 84.2980024,2.79740548 83.5829865,2.35802057 C82.8679706,1.91863566 81.9913546,1.6989465 80.9531123,1.6989465 C79.6210278,1.6989465 78.5191362,2.10415095 77.6474044,2.91457201 C76.7756726,3.72499307 76.3104295,5.04801001 76.2516611,6.88366253 Z M100.875512,15.5248559 C100.444543,15.5248559 100.229062,15.3100487 100.229062,14.8804279 L100.229062,13.5036954 C100.052757,13.7770905 99.8225838,14.0504814 99.5385364,14.3238765 C99.254489,14.5972715 98.9067809,14.8413706 98.4954019,15.056181 C98.0840229,15.2709914 97.5942933,15.4516247 97.0261984,15.5980864 C96.4581036,15.744548 95.7920713,15.8177777 95.0280817,15.8177777 C94.3228605,15.8177777 93.6519309,15.7054922 93.0152729,15.4809176 C92.3786149,15.2563443 91.8203231,14.9487783 91.3403809,14.5582139 C90.8604387,14.1676496 90.4784496,13.7087433 90.1944022,13.1814814 C89.9103548,12.6542195 89.7683332,12.0781457 89.7683332,11.4532428 C89.7683332,10.7892833 89.9103548,10.1936816 90.1944022,9.66641972 C90.4784496,9.13915783 90.8751306,8.6753696 91.384457,8.27504112 C91.8937834,7.87471265 92.5059454,7.54273792 93.2209614,7.27910697 C93.9359773,7.01547602 94.724442,6.82507875 95.586379,6.70790944 L100.229062,6.06348146 L100.229062,5.03825513 C100.229062,3.98373134 99.9107378,3.16355847 99.2740798,2.57771193 C98.6374217,1.99186538 97.6236815,1.6989465 96.2328285,1.6989465 C95.1358178,1.6989465 94.2885856,1.90887169 93.6911065,2.32872839 C93.0936274,2.74858508 92.7165356,3.20260934 92.5598198,3.6908148 C92.4814619,3.92515342 92.3884133,4.08625881 92.2806712,4.17413579 C92.172929,4.26201277 92.0309074,4.3059506 91.8546021,4.3059506 L91.4432252,4.3059506 C91.2669199,4.3059506 91.1151037,4.24248484 90.9877721,4.11555143 C90.8604405,3.98861801 90.7967756,3.83727659 90.7967756,3.66152262 C90.7967756,3.38812756 90.8947215,3.04638887 91.0906163,2.63629629 C91.2865111,2.2262037 91.6048375,1.82588123 92.0455986,1.43531687 C92.4863618,1.0447525 93.0495509,0.707895789 93.7351826,0.424736624 C94.4208143,0.141577459 95.2533546,-3.92926858e-14 96.2328285,-3.92926858e-14 C97.3886077,-3.92926858e-14 98.3435804,0.156223403 99.0977753,0.468674895 C99.8519702,0.781126388 100.444543,1.18633084 100.875512,1.68430041 C101.30648,2.18226997 101.605215,2.73393386 101.771726,3.33930863 C101.938236,3.9446834 102.02149,4.54028512 102.02149,5.12613167 L102.02149,14.8804279 C102.02149,15.3100487 101.806009,15.5248559 101.375041,15.5248559 L100.875512,15.5248559 Z M95.3219224,14.1188312 C95.9879646,14.1188312 96.6197158,14.0065457 97.2171949,13.7819711 C97.8146739,13.5573966 98.3386846,13.2205399 98.7892426,12.7713909 C99.2398006,12.3222419 99.5924059,11.755932 99.8470691,11.0724444 C100.101732,10.3889568 100.229062,9.58831183 100.229062,8.67048557 L100.229062,7.67455141 L96.438517,8.20181067 C93.1866637,8.65095969 91.5607614,9.68593974 91.5607614,11.3067819 C91.5607614,11.7949873 91.6733992,12.2148377 91.8986782,12.5663456 C92.1239572,12.9178536 92.4128977,13.2107724 92.7655083,13.4451111 C93.1181189,13.6794497 93.5196972,13.850319 93.9702552,13.9577242 C94.4208132,14.0651294 94.8713644,14.1188312 95.3219224,14.1188312 Z M108.456602,2.3140823 C109.161823,0.966635235 110.493887,0.29292181 112.452835,0.29292181 L113.540046,0.29292181 C113.971014,0.29292181 114.186495,0.507728989 114.186495,0.937349791 L114.186495,1.34744032 C114.186495,1.77706113 113.971014,1.99186831 113.540046,1.99186831 L112.276531,1.99186831 C111.101162,1.99186831 110.170676,2.333607 109.485044,3.01709464 C108.799412,3.70058228 108.456602,4.62815873 108.456602,5.79985183 L108.456602,14.8804279 C108.456602,15.0757101 108.392937,15.2319335 108.265605,15.3491028 C108.138274,15.4662721 107.976663,15.5248559 107.780768,15.5248559 L107.310623,15.5248559 C106.879654,15.5248559 106.664173,15.3100487 106.664173,14.8804279 L106.664173,0.966641972 C106.664173,0.771359789 106.722941,0.610254405 106.840478,0.483320986 C106.958015,0.356387567 107.114728,0.29292181 107.310623,0.29292181 L107.780768,0.29292181 C107.976663,0.29292181 108.138274,0.356387567 108.265605,0.483320986 C108.392937,0.610254405 108.456602,0.771359789 108.456602,0.966641972 L108.456602,2.3140823 Z M116.125844,6.73720162 C116.204202,5.74126249 116.404991,4.82833198 116.728217,3.9983827 C117.051444,3.16843342 117.482406,2.46054613 118.021116,1.87469958 C118.559827,1.28885303 119.211167,0.829946787 119.975157,0.497967076 C120.739147,0.165987366 121.601071,-3.92926858e-14 122.560955,-3.92926858e-14 C124.61785,-3.92926858e-14 126.214369,0.668831444 127.350558,2.0065144 C128.486748,3.34419735 129.054834,5.19446828 129.054834,7.55738269 L129.054834,7.9967654 C129.054834,8.19204759 128.99117,8.34827099 128.863838,8.4654403 C128.736506,8.58260961 128.574896,8.64119339 128.379001,8.64119339 L117.918272,8.64119339 L117.918272,8.93411519 C117.937862,9.59807462 118.060294,10.2424962 118.285573,10.8673991 C118.510852,11.4923021 118.819382,12.043966 119.211171,12.5224074 C119.602961,13.0008487 120.082896,13.3865252 120.650991,13.6794485 C121.219085,13.9723718 121.855734,14.1188312 122.560955,14.1188312 C123.187818,14.1188312 123.736316,14.0407195 124.206463,13.8844938 C124.67661,13.728268 125.078189,13.5476347 125.41121,13.3425884 C125.744231,13.1375421 126.013582,12.9276169 126.219272,12.7128065 C126.424961,12.4979961 126.566983,12.3320088 126.645341,12.2148395 C126.821646,11.9609726 126.95877,11.8096312 127.056718,11.7608107 C127.154665,11.7119901 127.311379,11.6875802 127.526863,11.6875802 L127.997008,11.6875802 C128.173313,11.6875802 128.325129,11.741282 128.452461,11.8486872 C128.579793,11.9560924 128.633663,12.0976699 128.614073,12.2734238 C128.594484,12.5468189 128.442668,12.8885576 128.15862,13.2986502 C127.874573,13.7087427 127.472995,14.0993013 126.953873,14.4703374 C126.434752,14.8413735 125.803001,15.1587023 125.058601,15.4223333 C124.314201,15.6859642 123.481661,15.8177777 122.560955,15.8177777 C121.62066,15.8177777 120.768531,15.6566723 120.004541,15.3344567 C119.240551,15.0122411 118.584314,14.5533349 118.035808,13.9577242 C117.487303,13.3621136 117.051444,12.6493443 116.728217,11.819395 C116.404991,10.9894457 116.204202,10.0765152 116.125844,9.0805761 C116.106254,8.78765283 116.09646,8.39709432 116.09646,7.90888886 C116.09646,7.4206834 116.106254,7.0301249 116.125844,6.73720162 Z M117.918272,7.00083125 L127.262406,7.00083125 L127.262406,6.88366253 C127.262406,6.16111845 127.154666,5.48252304 126.939181,4.84785595 C126.723697,4.21318886 126.415168,3.66152496 126.013583,3.19284773 C125.611999,2.72417049 125.117372,2.35802189 124.529688,2.09439094 C123.942003,1.83075999 123.285766,1.6989465 122.560955,1.6989465 C121.816555,1.6989465 121.160317,1.83075999 120.592222,2.09439094 C120.024128,2.35802189 119.539295,2.72417049 119.137711,3.19284773 C118.736127,3.66152496 118.432494,4.21318886 118.226805,4.84785595 C118.021115,5.48252304 117.918272,6.16111845 117.918272,6.88366253 L117.918272,7.00083125 Z" id="care" fill="#282827"></path>
            </g>
        </g>
    </g>
</svg>