<?xml version="1.0" encoding="UTF-8"?>
<svg width="180px" height="40px" viewBox="0 0 180 40" version="1.1" xmlns="http://www.w3.org/2000/svg" xmlns:xlink="http://www.w3.org/1999/xlink">
    <!-- Generator: Sketch 62 (91390) - https://sketch.com -->
    <title>logo / logo-shareco</title>
    <desc>Created with Sketch.</desc>
    <g id="logo-/-logo-shareco" stroke="none" stroke-width="1" fill="none" fill-rule="evenodd">
        <g id="SHARECO" transform="translate(6.000000, 9.000000)">
            <path d="M7.16377358,-1.33454501e-14 C9.83433962,-1.33454501e-14 11.534717,0.726 13.3850943,2.32974359 L12.3232075,3.3885641 C10.9873585,2.20846154 9.65150943,1.39220513 7.07264151,1.39220513 C3.94641509,1.39220513 2.06433962,3.11553846 2.06433962,5.83846154 C2.06433962,7.07835897 2.42886792,8.01702564 3.18792453,8.65107692 C3.94641509,9.28738462 5.19056604,9.80071795 6.40471698,9.98179487 L8.74132075,10.345641 C10.7756604,10.6474359 11.6858491,11.0095897 12.5960377,11.7660513 C13.7796226,12.7346154 14.4781132,14.2170769 14.4781132,15.9415385 C14.4781132,19.5704103 11.6858491,21.9001538 7.19320755,21.9001538 C3.97584906,21.9001538 1.97320755,21.0218462 -1.11273674e-14,19.0565128 L1.15415094,17.9063077 C3.09679245,19.8428718 4.67490566,20.4475897 7.28433962,20.4475897 C10.6839623,20.4475897 12.8388679,18.8139487 12.8388679,16.0007692 C12.8388679,14.7309744 12.4443396,13.6721538 11.655283,12.9777436 C10.8667925,12.3115385 10.29,12.0988718 8.5290566,11.8275385 L6.00962264,11.4332308 C4.37150943,11.192359 3.06509434,10.6474359 2.15490566,9.86051282 C1.00188679,8.89251282 0.455660377,7.56123077 0.455660377,5.89825641 C0.455660377,2.29871795 3.03566038,-1.33454501e-14 7.16377358,-1.33454501e-14 Z M18.7840755,0.180907692 L18.7840755,10.1339333 L30.0436981,10.1339333 L30.0436981,0.180907692 L31.6840755,0.180907692 L31.6840755,21.7177795 L30.0436981,21.7177795 L30.0436981,11.5848051 L18.7840755,11.5848051 L18.7840755,21.7177795 L17.1448302,21.7177795 L17.1448302,0.180907692 L18.7840755,0.180907692 Z M43.7595849,0.180907692 L51.7124151,21.7177795 L49.9514717,21.7177795 L48.0693962,16.4846 L37.9922264,16.4846 L36.110717,21.7177795 L34.3503396,21.7177795 L42.3020377,0.180907692 L43.7595849,0.180907692 Z M62.6045094,0.180907692 C66.1241321,0.180907692 68.7963962,2.20829231 68.7963962,5.95844615 C68.7963962,9.16424103 66.8537547,11.2519846 63.8186604,11.7658821 L69.0386604,21.7177795 L67.1265849,21.7177795 L61.9671509,11.7963436 L56.0180943,11.7963436 L56.0180943,21.7177795 L54.3788491,21.7177795 L54.3788491,0.180907692 L62.6045094,0.180907692 Z M43.0310943,2.3600359 L38.5078868,15.0331641 L47.5537358,15.0331641 L43.0310943,2.3600359 Z M62.3916792,1.63347179 L56.0180943,1.63347179 L56.0180943,10.3454718 L62.3916792,10.3454718 C65.1533774,10.3454718 67.1560189,8.95383077 67.1560189,5.98890769 C67.1560189,3.02511282 65.1533774,1.63347179 62.3916792,1.63347179 Z" id="SHAR" fill="#939598"></path>
            <path d="M94.8892642,-1.33454501e-14 C98.7428491,-1.33454501e-14 101.535113,2.38953846 102.23417,6.2914359 L100.564358,6.2914359 C99.926434,3.32764103 97.8020943,1.452 94.8892642,1.452 C93.3400189,1.452 91.8836038,2.02738462 90.7905849,3.11553846 C89.2436038,4.65892308 89.1207736,6.32189744 89.1207736,10.9497949 C89.1207736,15.5776923 89.2436038,17.2406667 90.7905849,18.7851795 C91.8836038,19.8727692 93.3400189,20.4475897 94.8892642,20.4475897 C97.8020943,20.4475897 99.987566,18.5725128 100.624925,15.6087179 L102.23417,15.6087179 C101.535113,19.5100513 98.682283,21.9001538 94.8892642,21.9001538 C92.8549245,21.9001538 90.912283,21.1126667 89.486434,19.6916923 C87.5646018,17.777529 87.4855854,15.9205897 87.4827576,11.3282003 L87.4826604,10.9497949 C87.4826604,6.08046154 87.5126604,4.17435897 89.486434,2.20846154 C90.912283,0.786358974 92.8549245,-1.33454501e-14 94.8892642,-1.33454501e-14 Z M112.307321,0.000507692308 C114.341094,0.000507692308 116.28317,0.786302564 117.710151,2.20840513 C119.578433,4.07083428 119.703181,5.87959712 119.711137,10.2050808 L119.711137,11.6945561 C119.703181,16.0208939 119.578433,17.8286723 117.710151,19.6916359 C116.28317,21.1126103 114.341094,21.9000974 112.307321,21.9000974 C110.272981,21.9000974 108.330906,21.1126103 106.905057,19.6916359 C105.086586,17.8804213 104.918052,16.1213687 104.902776,12.0493094 L104.902776,9.85039448 C104.918052,5.77906888 105.086586,4.01910013 106.905057,2.20840513 C108.330906,0.786302564 110.272981,0.000507692308 112.307321,0.000507692308 Z M84.8160566,0.180907692 L84.8160566,1.63347179 L73.3430377,1.63347179 L73.3430377,10.1339333 L83.1168113,10.1339333 L83.1168113,11.5848051 L73.3430377,11.5848051 L73.3430377,20.2657795 L84.8160566,20.2657795 L84.8160566,21.7177795 L71.7049245,21.7177795 L71.7049245,0.180907692 L84.8160566,0.180907692 Z M112.307321,1.45194359 C110.758075,1.45194359 109.30166,2.0267641 108.209208,3.11548205 C106.703486,4.61660471 106.547046,6.23200821 106.53969,10.5809434 L106.539396,10.9497385 C106.539396,15.5776359 106.66166,17.2406103 108.209208,18.784559 C109.30166,19.8727128 110.758075,20.4480974 112.307321,20.4480974 C113.854868,20.4480974 115.311283,19.8727128 116.403736,18.784559 C117.909457,17.2823386 118.065897,15.6674395 118.073254,11.3185323 L118.073547,10.9497385 C118.073547,6.32184103 117.951283,4.65830256 116.403736,3.11548205 C115.311283,2.0267641 113.854868,1.45194359 112.307321,1.45194359 Z" id="ECO" fill="#F26A27"></path>
        </g>
    </g>
</svg>