<?xml version="1.0" encoding="UTF-8"?>
<svg width="360px" height="360px" viewBox="0 0 360 360" version="1.1" xmlns="http://www.w3.org/2000/svg" xmlns:xlink="http://www.w3.org/1999/xlink">
    <g id="icon-app" stroke-width="1" fill-rule="evenodd">
        <path id="icon-mobile" fill="#000000" fill-rule="nonzero" d="M219,45.25 C224.937061,45.25 229.75,50.0629389 229.75,56 L229.75,56 L229.75,304 C229.75,309.937061 224.937061,314.75 219,314.75 L219,314.75 L99,314.75 C93.0629389,314.75 88.25,309.937061 88.25,304 L88.25,304 L88.25,56 C88.25,50.0629389 93.0629389,45.25 99,45.25 L99,45.25 Z M219,46.75 L99,46.75 C93.8913661,46.75 89.75,50.8913661 89.75,56 L89.75,56 L89.75,304 C89.75,309.108634 93.8913661,313.25 99,313.25 L99,313.25 L219,313.25 C224.108634,313.25 228.25,309.108634 228.25,304 L228.25,304 L228.25,56 C228.25,50.8913661 224.108634,46.75 219,46.75 L219,46.75 Z M217,67.25 C221.280207,67.25 224.75,70.7197932 224.75,75 L224.75,75 L224.75,297 C224.75,301.280207 221.280207,304.75 217,304.75 L217,304.75 L101,304.75 C96.7197932,304.75 93.25,301.280207 93.25,297 L93.25,297 L93.25,75 C93.25,70.7197932 96.7197932,67.25 101,67.25 L101,67.25 Z M217,68.75 L101,68.75 C97.5482203,68.75 94.75,71.5482203 94.75,75 L94.75,75 L94.75,297 C94.75,300.45178 97.5482203,303.25 101,303.25 L101,303.25 L217,303.25 C220.45178,303.25 223.25,300.45178 223.25,297 L223.25,297 L223.25,75 C223.25,71.5482203 220.45178,68.75 217,68.75 L217,68.75 Z M181.5,55.5 C182.328427,55.5 183,56.1715729 183,57 C183,57.8284271 182.328427,58.5 181.5,58.5 C180.671573,58.5 180,57.8284271 180,57 C180,56.1715729 180.671573,55.5 181.5,55.5 Z M174,56.25 C174.414214,56.25 174.75,56.5857864 174.75,57 C174.75,57.3796958 174.467846,57.693491 174.101771,57.7431534 L174,57.75 L144,57.75 C143.585786,57.75 143.25,57.4142136 143.25,57 C143.25,56.6203042 143.532154,56.306509 143.898229,56.2568466 L144,56.25 L174,56.25 Z"></path>
        <path id="spotlight" fill="#FFDC00" fill-rule="nonzero" d="M248,149 C250.761424,149 253,151.238576 253,154 L253,200 C253,202.761424 250.761424,205 248,205 L118,205 C115.238576,205 113,202.761424 113,200 L113,154 C113,151.238576 115.238576,149 118,149 L248,149 Z"></path>
        <path id="icon-workflow" fill="#000000" d="M253,200 C253,202.761424 250.761424,205 248,205 L118,205 C115.238576,205 113,202.761424 113,200 L113,154 C113,151.238576 115.238576,149 118,149 L248,149 C250.761424,149 253,151.238576 253,154 L253,176.25 L278.82626,176.25 C283.845268,176.25 287.930651,172.25267 288.072453,167.267965 L288.07626,167 L288.07626,99 C288.07626,93.158698 292.735194,88.4055485 298.539875,88.2537407 L298.82626,88.25 L331,88.25 L331,86 L339,89 L331,92 L331,89.75 L298.82626,89.75 C293.807251,89.75 289.721868,93.7473296 289.580066,98.7320348 L289.57626,99 L289.57626,167 C289.57626,171.541715 286.759777,175.425605 282.778135,177.000347 C286.675827,178.541193 289.456974,182.295533 289.572519,186.713616 L289.57626,187 L289.57626,255 L289.580066,255.267965 C289.719336,260.163658 293.662602,264.106923 298.558294,264.246193 L298.82626,264.25 L330.999,264.25 L331,262 L339,265 L331,268 L330.999,265.75 L298.82626,265.75 L298.539875,265.746259 C292.830353,265.59694 288.229319,260.995906 288.08,255.286384 L288.07626,255 L288.07626,187 L288.072453,186.732035 C287.933183,181.836342 283.989917,177.893077 279.094225,177.753807 L278.82626,177.75 L253,177.75 L253,200 Z M248,150.5 L118,150.5 C116.131437,150.5 114.604874,151.964278 114.505179,153.807965 L114.5,154 L114.5,200 C114.5,201.868563 115.964278,203.395126 117.807965,203.494821 L118,203.5 L248,203.5 C249.868563,203.5 251.395126,202.035722 251.494821,200.192035 L251.5,200 L251.5,154 C251.5,152.131437 250.035722,150.604874 248.192035,150.505179 L248,150.5 Z M75,174 L83,177 L75,180 L75,177.75 L0,177.75 L0,176.25 L75,176.25 L75,174 Z"></path>
    </g>
</svg>