<?xml version="1.0" encoding="UTF-8"?>
<svg width="360px" height="360px" viewBox="0 0 360 360" version="1.1" xmlns="http://www.w3.org/2000/svg" xmlns:xlink="http://www.w3.org/1999/xlink">
    <g id="icon-product" stroke-width="1" fill-rule="evenodd">
        <polygon id="spotlight" fill="#FFDC00" fill-rule="nonzero" points="153.75 166.556823 120.5 145.107486 87.25 166.556823 87.25 201.443177 120.5 222.892514 153.75 201.443177"></polygon>
        <path id="icon-product" fill="#000000" fill-rule="nonzero" d="M213.9403,49.25 C228.448111,49.25 240.53771,59.5000247 243.203045,73.0794051 L257.711296,63.8091919 C261.145461,61.6145973 265.515635,61.555284 269.000396,63.6312518 L269.288704,63.8091919 L328.788704,101.832511 C331.785949,103.747893 333.635522,107.017056 333.744866,110.558107 L333.75,110.890845 L333.75,172.109155 C333.75,175.666143 331.991252,178.985052 329.066316,180.983989 L328.788704,181.167489 L269.288704,219.190808 C265.854539,221.385403 261.484365,221.444716 257.999604,219.368748 L257.711296,219.190808 L243.75,210.268 L243.75,258 C243.75,273.719405 231.134336,286.492263 215.475434,286.746148 L215,286.75 L33.25,286.75 L33.25,80.6556033 L206.25,80.655 L206.25,50.2344938 L206.823409,50.0955764 C209.113957,49.5406554 211.530854,49.25 213.9403,49.25 Z M206.25,82.155 L34.75,82.155 L34.75,285.25 L215,285.25 C229.899262,285.25 242.00571,273.292544 242.246349,258.450629 L242.25,258 L242.25,258 C242.25,257.832364 242.24864,257.665058 242.245931,257.498094 C242.245487,257.473101 242.245046,257.448068 242.244575,257.423042 L242.244,257.46 L242.239226,257.183599 L242.229337,256.86993 L242.229337,256.86993 C241.659821,241.470432 229.495716,229.192105 213.9403,229.192105 L213.511948,229.199948 C212.157021,229.24701 210.173761,229.505918 207.575774,229.977927 L206.25,230.22349 L206.25,82.155 Z M213.9403,50.75 C211.879267,50.75 209.811497,50.9738836 207.832746,51.402847 L207.75,51.421 L207.750094,227.940309 C209.80064,227.482908 211.905233,227.25 214.038908,227.25 C227.187726,227.25 238.335313,236.087326 242.250938,248.329778 L242.25,78.7297308 C242.25,63.2788815 229.577221,50.75 213.9403,50.75 Z M74.1794872,238.752688 L74.1794872,244 L69,244 L69,238.752688 L74.1794872,238.752688 Z M170,238.752688 L170,244 L164.820513,244 L164.820513,238.752688 L170,238.752688 Z M120.5,145.107486 L153.75,166.556823 L153.75,201.443177 L120.5,222.892514 L87.25,201.443177 L87.25,166.556823 L120.5,145.107486 Z M152.25,168.341486 L121.25,188.339 L121.249,220.623486 L152.25,200.625 L152.25,168.341486 Z M88.75,168.341486 L88.75,200.626 L119.749,220.622486 L119.749,188.338486 L88.75,168.341486 Z M258.797415,64.9020532 L258.519022,65.0731454 L243.47216,74.6879398 C243.633595,75.8523763 243.726271,77.0384978 243.746006,78.2421728 L243.75,78.7297308 L243.75,135.083 L258.660802,144.224746 C261.536772,145.988021 265.135996,146.041826 268.055946,144.38668 L268.336354,144.22117 L327.863899,107.663899 C328.216866,107.447134 328.678725,107.557547 328.89549,107.910514 C329.094192,108.234067 329.017973,108.64912 328.732015,108.883013 L328.648875,108.942106 L269.121331,145.499376 C265.771265,147.556731 261.57453,147.617028 258.17465,145.67966 L257.87677,145.503532 L243.75,136.842 L243.75,208.488 L258.519022,217.926855 C261.464052,219.808869 265.209071,219.865899 268.202585,218.097947 L268.480978,217.926855 L327.980978,179.903535 C330.554803,178.258739 332.145075,175.453753 332.244995,172.41389 L332.25,172.109155 L332.25,110.890845 C332.25,107.836351 330.742755,104.985891 328.235063,103.264777 L327.980978,103.096465 L268.480978,65.0731454 C265.535948,63.1911315 261.790929,63.1341008 258.797415,64.9020532 Z M263.446271,149.960982 C263.825967,149.960982 264.139762,150.243136 264.189425,150.609211 L264.196271,150.710982 L264.196271,214.449051 C264.196271,214.863265 263.860485,215.199051 263.446271,215.199051 C263.066576,215.199051 262.75278,214.916897 262.703118,214.550822 L262.696271,214.449051 L262.696271,150.710982 C262.696271,150.296768 263.032058,149.960982 263.446271,149.960982 Z M120.5,146.892 L89.383,166.964486 L120.499,187.037486 L151.616,166.964486 L120.5,146.892 Z M74.1794872,122 L74.1794872,127.247312 L69,127.247312 L69,122 L74.1794872,122 Z M170,122 L170,127.247312 L164.820513,127.247312 L164.820513,122 L170,122 Z"></path>
    </g>
</svg>