<?xml version="1.0" encoding="UTF-8"?>
<svg width="180px" height="40px" viewBox="0 0 180 40" version="1.1" xmlns="http://www.w3.org/2000/svg" xmlns:xlink="http://www.w3.org/1999/xlink">
    <!-- Generator: Sketch 62 (91390) - https://sketch.com -->
    <title>logo / logo-yumiwi</title>
    <desc>Created with Sketch.</desc>
    <g id="logo-/-logo-yumiwi" stroke="none" stroke-width="1" fill="none" fill-rule="evenodd">
        <g id="yumiwi" transform="translate(5.000000, 0.000000)">
            <path d="M13.0733411,10.0442563 C13.5158899,8.6464903 14.957712,7.84037625 16.2778096,8.25519106 C17.5969636,8.67000588 18.3150438,10.1533686 17.8734386,11.5520752 L17.8734386,11.5520752 L9.70940407,37.3768842 C9.26779887,38.7755908 7.82597677,39.5807643 6.50493557,39.1659494 C5.18483798,38.750194 4.46675773,37.2668313 4.90930653,35.8681246 L4.90930653,35.8681246 Z M36.2002431,8.24192828 C37.5845056,8.24192828 38.7168266,9.44122281 38.7168266,10.9076543 L38.7168266,10.9076543 L38.7168266,23.6041858 C38.7168266,25.0706173 37.5845056,26.2699118 36.2002431,26.2699118 C36.1002214,26.2699118 36.0039741,26.2510994 35.9067832,26.2379306 C35.8114796,26.2576837 35.7124015,26.2699118 35.6104926,26.2699118 L35.6104926,26.2699118 L30.4423907,26.2699118 C29.7073256,26.2699118 29.1053083,25.7412816 29.1053083,25.0941329 C29.1053083,24.4479248 29.7073256,23.9183539 30.4423907,23.9183539 L30.4423907,23.9183539 L33.7138549,23.9183539 C33.7025317,23.8139447 33.6836596,23.7114168 33.6836596,23.6041858 L33.6836596,23.6041858 L33.6836596,10.9076543 C33.6836596,9.44122281 34.8159807,8.24192828 36.2002431,8.24192828 Z M114.439851,8.24145797 C115.824114,8.24145797 116.956435,9.44169312 116.956435,10.9081246 L116.956435,10.9081246 L116.956435,23.6037155 C116.956435,25.070147 115.824114,26.2694415 114.439851,26.2694415 C113.055589,26.2694415 111.923268,25.070147 111.923268,23.6037155 L111.923268,23.6037155 L111.923268,10.9081246 C111.923268,9.44169312 113.055589,8.24145797 114.439851,8.24145797 Z M24.5618702,8.24145797 C25.9461327,8.24145797 27.0784537,9.44169312 27.0784537,10.9081246 L27.0784537,10.9081246 L27.0784537,23.6037155 C27.0784537,25.070147 25.9461327,26.2694415 24.5618702,26.2694415 C23.1776078,26.2694415 22.0452867,25.070147 22.0452867,23.6037155 L22.0452867,23.6037155 L22.0452867,10.9081246 C22.0452867,9.44169312 23.1776078,8.24145797 24.5618702,8.24145797 Z M50.9633502,8.09124045 C51.6984153,8.09124045 52.3004327,8.61987066 52.3004327,9.2670194 C52.3004327,9.91322751 51.6984153,10.4427984 50.9633502,10.4427984 L50.9633502,10.4427984 L48.514706,10.4427984 C48.5269728,10.5472075 48.5449013,10.6497354 48.5449013,10.7569665 L48.5449013,10.7569665 L48.5449013,23.4544386 C48.5449013,24.9208701 47.4125802,26.1201646 46.0292614,26.1201646 C44.6449989,26.1201646 43.5126779,24.9208701 43.5126779,23.4544386 L43.5126779,23.4544386 L43.5126779,10.7569665 C43.5126779,9.29053498 44.6449989,8.09124045 46.0292614,8.09124045 C46.1056931,8.09124045 46.1774067,8.10817166 46.2519512,8.11475603 C46.3387625,8.09970606 46.4274609,8.09124045 46.5199338,8.09124045 L46.5199338,8.09124045 Z M66.7983879,8.09124045 C66.8851992,8.09124045 66.9682361,8.09970606 67.0503294,8.1138154 C67.1210994,8.10723104 67.1880951,8.09124045 67.2598088,8.09124045 C68.6440712,8.09124045 69.7763922,9.29053498 69.7763922,10.7569665 L69.7763922,10.7569665 L69.7763922,23.4544386 C69.7763922,24.9208701 68.6440712,26.1201646 67.2598088,26.1201646 C65.8755463,26.1201646 64.7432253,24.9208701 64.7432253,23.4544386 L64.7432253,23.4544386 L64.7432253,10.7569665 C64.7432253,10.6497354 64.7620973,10.5472075 64.7734205,10.4427984 L64.7734205,10.4427984 L62.3549715,10.4427984 C61.6189629,10.4427984 61.0178891,9.91322751 61.0178891,9.2670194 C61.0178891,8.61987066 61.6189629,8.09124045 62.3549715,8.09124045 L62.3549715,8.09124045 Z M56.722618,8.0908642 C58.1068805,8.0908642 59.2392015,9.29109935 59.2392015,10.7575309 L59.2392015,10.7575309 L59.2392015,23.4540623 C59.2392015,24.9204938 58.1068805,26.1197884 56.722618,26.1197884 C55.3383556,26.1197884 54.2060346,24.9204938 54.2060346,23.4540623 L54.2060346,23.4540623 L54.2060346,10.7575309 C54.2060346,9.29109935 55.3383556,8.0908642 56.722618,8.0908642 Z M77.6394181,8.0908642 C79.0236806,8.0908642 80.1560016,9.29109935 80.1560016,10.7575309 L80.1560016,10.7575309 L80.1560016,23.4540623 C80.1560016,24.9204938 79.0236806,26.1197884 77.6394181,26.1197884 C76.2551557,26.1197884 75.1228347,24.9204938 75.1228347,23.4540623 L75.1228347,23.4540623 L75.1228347,10.7575309 C75.1228347,9.29109935 76.2551557,8.0908642 77.6394181,8.0908642 Z M96.0396348,14.4005644 C97.4238972,14.4005644 98.5562182,15.6007995 98.5562182,17.067231 L98.5562182,17.067231 L98.5562182,23.4540623 C98.5562182,24.9204938 97.4238972,26.1197884 96.0396348,26.1197884 C94.6553723,26.1197884 93.5230513,24.9204938 93.5230513,23.4540623 L93.5230513,23.4540623 L93.5230513,17.067231 C93.5230513,15.6007995 94.6553723,14.4005644 96.0396348,14.4005644 Z M85.8593139,8.15539095 C87.2341403,8.05004115 88.5806587,9.14398589 88.8524158,10.5850206 L88.8524158,10.5850206 L91.2397259,23.2448677 C91.511483,24.6859024 90.6094006,25.9510406 89.2355177,26.0563904 C87.8606913,26.1607995 86.5141729,25.0677954 86.2424158,23.6267607 L86.2424158,23.6267607 L83.8541621,10.9669136 C83.582405,9.52587889 84.4844874,8.26074074 85.8593139,8.15539095 Z M105.748155,8.15539095 C107.122982,8.26074074 108.025064,9.52587889 107.753307,10.9669136 L105.365053,23.6267607 C105.093296,25.0677954 103.746778,26.1607995 102.371951,26.0563904 C100.998069,25.9510406 100.095986,24.6859024 100.367743,23.2448677 L102.755053,10.5850206 C103.02681,9.14398589 104.373329,8.05004115 105.748155,8.15539095 Z M1.31484781,8.77582598 C2.49246167,8.25472075 3.94466338,8.92444444 4.54196272,10.2648325 L4.54196272,10.2648325 L7.82946809,17.6477837 C8.42676743,18.9881717 7.9511926,20.5110406 6.77263514,21.0330864 C5.59407767,21.5551323 4.14187596,20.8854086 3.54457662,19.5450206 L3.54457662,19.5450206 L0.258014853,12.1611287 C-0.339284487,10.8216814 0.136290343,9.29787184 1.31484781,8.77582598 Z" fill="#ABDBD3"></path>
            <path d="M80.2647044,2.93944738 C80.2647044,4.56296296 78.9446068,5.87889477 77.3159518,5.87889477 C75.6872967,5.87889477 74.3671991,4.56296296 74.3671991,2.93944738 C74.3671991,1.3159318 75.6872967,-1.57898386e-14 77.3159518,-1.57898386e-14 C78.9446068,-1.57898386e-14 80.2647044,1.3159318 80.2647044,2.93944738" id="Fill-27" fill="#CF4E43"></path>
            <path d="M116.947188,3.29218107 C116.947188,4.91569665 115.62709,6.23162845 113.998435,6.23162845 C112.36978,6.23162845 111.049682,4.91569665 111.049682,3.29218107 C111.049682,1.66866549 112.36978,0.352733686 113.998435,0.352733686 C115.62709,0.352733686 116.947188,1.66866549 116.947188,3.29218107" id="Fill-29" fill="#E9DA44"></path>
        </g>
    </g>
</svg>