<svg width="50px" height="50px" viewBox="0 0 50 50" version="1.1" xmlns="http://www.w3.org/2000/svg" xmlns:xlink="http://www.w3.org/1999/xlink">
    <g id="icon-/-icon-lang" stroke="none" stroke-width="1" fill="none" fill-rule="evenodd">
        <path d="M25,10 C33.2842712,10 40,16.7157288 40,25 C40,33.2842712 33.2842712,40 25,40 C16.7157288,40 10,33.2842712 10,25 C10,16.7157288 16.7157288,10 25,10 Z M24.3921987,32.4566723 L24.3701396,32.4568123 C24.2301889,32.458142 23.4220087,32.4721039 21.8797836,32.6187036 C20.1752191,32.7807349 19.3673686,32.9832624 19.3673686,32.9832624 C19.3673686,32.9832624 20.078277,35.1625137 21.4920154,36.8961931 C22.9057537,38.6298726 24.3921987,38.8 24.3921987,38.8 L24.3921987,32.4566723 Z M25.6144479,32.4568123 L25.5923889,32.4566723 L25.5923889,38.8 C25.5923889,38.8 27.0788338,38.6298726 28.4925722,36.8961931 C29.9063105,35.1625137 30.617219,32.9832624 30.617219,32.9832624 C30.617219,32.9832624 29.8093685,32.7807349 28.1048039,32.6187036 C26.5625788,32.4721039 25.7543986,32.458142 25.6144479,32.4568123 Z M18.1879068,33.2587068 C18.1879068,33.2587068 17.2911928,33.4855433 16.3702432,33.874406 C15.4492936,34.2632687 15.0534469,34.6116249 15.0534469,34.6116249 C15.0534469,34.6116249 16.030946,35.7701116 17.9859442,36.9285983 C19.9409424,38.0870851 21.1607967,38.3139216 21.1607967,38.3139216 C21.1607967,38.3139216 20.3287107,37.5199937 19.5047031,36.1184678 C18.6806956,34.7169418 18.1879068,33.2587068 18.1879068,33.2587068 Z M31.7856378,33.2587068 C31.7856378,33.2587068 31.292849,34.7169418 30.4688414,36.1184678 C29.6448339,37.5199937 28.8127479,38.3139216 28.8127479,38.3139216 C28.8127479,38.3139216 30.0326022,38.0870851 31.9876004,36.9285983 C33.9425986,35.7701116 34.9200977,34.6116249 34.9200977,34.6116249 C34.9200977,34.6116249 34.524251,34.2632687 33.6033014,33.874406 C32.6823518,33.4855433 31.7856378,33.2587068 31.7856378,33.2587068 Z M16.895346,25.6000058 L11.2,25.6000058 C11.2,25.6000058 11.3456205,28.3872926 12.2825197,30.3635737 C13.6881795,33.3286516 14.2536749,33.6851091 14.2536749,33.6851091 C14.2536749,33.6851091 14.8030132,33.231436 15.6108637,32.8668772 C16.4187142,32.5023184 17.8324526,32.0891518 17.8324526,32.0891518 C17.8324526,32.0891518 17.4285274,30.5742076 17.2104077,28.9782504 C16.9922881,27.3822931 16.895346,25.6000058 16.895346,25.6000058 Z M38.7811174,25.6000058 L33.0857713,25.6000058 C33.0857713,25.6000058 32.9888293,27.3822931 32.7707096,28.9782504 C32.55259,30.5742076 32.1486648,32.0891518 32.1486648,32.0891518 C32.1486648,32.0891518 33.5624031,32.5023184 34.3702536,32.8668772 C35.1781041,33.231436 35.7274425,33.6851091 35.7274425,33.6851091 C35.7274425,33.6851091 36.2929378,33.3286516 37.6985977,30.3635737 C38.6354969,28.3872926 38.7811174,25.6000058 38.7811174,25.6000058 L38.7811174,25.6000058 Z M24.3921987,25.6 L18.0990433,25.6 C18.0990433,25.6 18.1475143,27.3012801 18.3898695,28.9782504 C18.6322246,30.6552207 18.9957573,31.8056061 18.9957573,31.8056061 C18.9957573,31.8056061 20.447817,31.5488302 21.3546808,31.4491487 C22.2412451,31.3516984 24.3921987,31.2304134 24.3921987,31.2304134 L24.3921987,25.6 Z M31.8803663,25.6 L25.5872109,25.6 L25.5872109,31.2304134 C25.5872109,31.2304134 27.7381644,31.3516984 28.6247287,31.4491487 C29.5315925,31.5488302 30.9836522,31.8056061 30.9836522,31.8056061 C30.9836522,31.8056061 31.3471849,30.6552207 31.5895401,28.9782504 C31.8318952,27.3012801 31.8803663,25.6 31.8803663,25.6 L31.8803663,25.6 Z M18.9957573,18.1752244 C18.9957573,18.1752244 18.6322246,19.3256098 18.3898695,21.0025801 C18.1475143,22.6795504 18.0990433,24.3808305 18.0990433,24.3808305 L18.0990433,24.3808305 L24.3921987,24.3808305 L24.3921987,18.7504171 C24.3921987,18.7504171 22.2412451,18.6291321 21.3546808,18.5316818 C20.447817,18.4320003 18.9957573,18.1752244 18.9957573,18.1752244 Z M30.9836522,18.1752244 C30.9836522,18.1752244 29.5315925,18.4320003 28.6247287,18.5316818 C27.7381644,18.6291321 25.5872109,18.7504171 25.5872109,18.7504171 L25.5872109,24.3808305 L31.8803663,24.3808305 C31.8803663,24.3808305 31.8318952,22.6795504 31.5895401,21.0025801 C31.3471849,19.3256098 30.9836522,18.1752244 30.9836522,18.1752244 Z M14.2536749,16.2957214 C14.2536749,16.2957214 13.6881795,16.6521789 12.2825197,19.6172568 C11.3456205,21.5935379 11.2,24.3808247 11.2,24.3808247 L11.2,24.3808247 L16.895346,24.3808247 C16.895346,24.3808247 16.9922881,22.5985374 17.2104077,21.0025801 C17.4285274,19.4066229 17.8324526,17.8916787 17.8324526,17.8916787 C17.8324526,17.8916787 16.4187142,17.4785121 15.6108637,17.1139533 C14.8030132,16.7493945 14.2536749,16.2957214 14.2536749,16.2957214 Z M35.7274425,16.2957214 C35.7274425,16.2957214 35.1781041,16.7493945 34.3702536,17.1139533 C33.5624031,17.4785121 32.1486648,17.8916787 32.1486648,17.8916787 C32.1486648,17.8916787 32.55259,19.4066229 32.7707096,21.0025801 C32.9888293,22.5985374 33.0857713,24.3808247 33.0857713,24.3808247 L38.7811174,24.3808247 C38.7811174,24.3808247 38.6354969,21.5935379 37.6985977,19.6172568 C36.2929378,16.6521789 35.7274425,16.2957214 35.7274425,16.2957214 Z M24.3921987,11.2 C24.3921987,11.2 22.9057537,11.3701274 21.4920154,13.1038069 C20.078277,14.8374863 19.3673686,17.0167376 19.3673686,17.0167376 C19.3673686,17.0167376 20.1752191,17.2192651 21.8797836,17.3812964 C23.4220087,17.5278961 24.2301889,17.541858 24.3701396,17.5431877 L24.3921987,17.5433277 Z M25.5923889,11.2 L25.5923889,17.5433277 L25.6144479,17.5431877 C25.7543986,17.541858 26.5625788,17.5278961 28.1048039,17.3812964 C29.8093685,17.2192651 30.617219,17.0167376 30.617219,17.0167376 C30.617219,17.0167376 29.9063105,14.8374863 28.4925722,13.1038069 C27.0788338,11.3701274 25.5923889,11.2 25.5923889,11.2 Z M21.1607967,11.6860784 C21.1607967,11.6860784 19.9409424,11.9129149 17.9859442,13.0714017 C16.030946,14.2298884 15.0534469,15.3883751 15.0534469,15.3883751 C15.0534469,15.3883751 15.4492936,15.7367313 16.3702432,16.125594 C17.2911928,16.5144567 18.1879068,16.7412932 18.1879068,16.7412932 C18.1879068,16.7412932 18.6806956,15.2830582 19.5047031,13.8815322 C20.3287107,12.4800063 21.1607967,11.6860784 21.1607967,11.6860784 Z M28.8127479,11.6860784 C28.8127479,11.6860784 29.6448339,12.4800063 30.4688414,13.8815322 C31.292849,15.2830582 31.7856378,16.7412932 31.7856378,16.7412932 C31.7856378,16.7412932 32.6823518,16.5144567 33.6033014,16.125594 C34.524251,15.7367313 34.9200977,15.3883751 34.9200977,15.3883751 C34.9200977,15.3883751 33.9425986,14.2298884 31.9876004,13.0714017 C30.0326022,11.9129149 28.8127479,11.6860784 28.8127479,11.6860784 Z" id="icon-lang" fill="#000000"></path>
    </g>
</svg>