<?xml version="1.0" encoding="UTF-8"?>
<svg width="360px" height="360px" viewBox="0 0 360 360" version="1.1" xmlns="http://www.w3.org/2000/svg" xmlns:xlink="http://www.w3.org/1999/xlink">
    <g id="icon-web" fill-rule="evenodd">
        <path id="spotlight" fill="#FFDC00" fill-rule="nonzero" d="M216.991046,177.990935 C217.835387,175.787028 220.29825,174.68787 222.491531,175.538852 C224.58153,176.34976 225.682892,178.648886 225.016365,180.812226 L225.016365,180.812226 L224.929026,181.063987 L205.040656,232.976797 C204.196315,235.180704 201.733452,236.279861 199.540171,235.42888 C197.450172,234.617972 196.348811,232.318846 197.015337,230.155506 L197.015337,230.155506 L197.102676,229.903745 Z M233.896677,184.63519 L255.999286,204.859314 C256.312844,205.146222 256.325578,205.636094 256.02735,205.938906 L234.056243,228.247724 L233.854913,228.4389 C232.158725,229.934752 229.627673,229.849461 228.050183,228.247724 L227.86193,228.04333 L227.720426,227.869146 C226.402463,226.159695 226.531018,223.724468 228.050183,222.181952 L244.276118,205.707 L228.209776,191.008613 L228.011253,190.814352 C226.458467,189.178926 226.411292,186.626942 227.898761,184.950954 C229.467269,183.183655 232.155245,183.04176 233.896677,184.63519 Z M188.132854,183.600707 C189.874287,182.007278 192.562262,182.149173 194.130771,183.916471 C195.61824,185.592459 195.571065,188.144443 194.018279,189.779869 L194.018279,189.779869 L193.819752,189.974134 L177.753,204.673 L193.979348,221.147469 C195.498514,222.689985 195.627068,225.125212 194.309105,226.834663 L194.309105,226.834663 L194.167602,227.008848 L193.979348,227.213241 C192.401858,228.814978 189.870806,228.900269 188.174618,227.404418 L188.174618,227.404418 L187.973288,227.213241 L166.002181,204.904423 C165.703954,204.601612 165.716688,204.11174 166.030245,203.824831 L166.030245,203.824831 Z"></path>
        <path id="icon-browser" fill="#000000" fill-rule="nonzero" d="M320,85.25 C323.175637,85.25 325.75,87.8243627 325.75,91 L325.75,91 L325.75,269 C325.75,272.175637 323.175637,274.75 320,274.75 L320,274.75 L40,274.75 C36.8243627,274.75 34.25,272.175637 34.25,269 L34.25,269 L34.25,91 C34.25,87.8243627 36.8243627,85.25 40,85.25 L40,85.25 Z M320,86.75 L40,86.75 C37.6527898,86.75 35.75,88.6527898 35.75,91 L35.75,91 L35.75,269 C35.75,271.34721 37.6527898,273.25 40,273.25 L40,273.25 L320,273.25 C322.34721,273.25 324.25,271.34721 324.25,269 L324.25,269 L324.25,91 C324.25,88.6527898 322.34721,86.75 320,86.75 L320,86.75 Z M316,108 C317.656854,108 319,109.343146 319,111 L319,265 C319,266.656854 317.656854,268 316,268 L44,268 C42.3431458,268 41,266.656854 41,265 L41,111 C41,109.343146 42.3431458,108 44,108 L316,108 Z M112.256,109.5 L44,109.5 C43.2203039,109.5 42.5795513,110.094888 42.5068666,110.85554 L42.5,111 L42.5,265 C42.5,265.779696 43.0948881,266.420449 43.85554,266.493133 L44,266.5 L113.25,266.5 L112.256,109.5 Z M305.997,146.25 L113.988,146.25 L114.749985,266.495253 L113.916,266.5 L306.357,266.5 L305.500006,266.496901 L305.997,146.25 Z M317.5,146.25 L307.496,146.25 L306.999,266.5 L316,266.5 C316.779696,266.5 317.420449,265.905112 317.493133,265.14446 L317.5,265 L317.5,146.25 Z M216.991046,177.990935 C217.835387,175.787028 220.29825,174.68787 222.491531,175.538852 C224.58153,176.34976 225.682892,178.648886 225.016365,180.812226 L225.016365,180.812226 L224.929026,181.063987 L205.040656,232.976797 C204.196315,235.180704 201.733452,236.279861 199.540171,235.42888 C197.450172,234.617972 196.348811,232.318846 197.015337,230.155506 L197.015337,230.155506 L197.102676,229.903745 Z M221.784723,176.8794 C220.410856,176.443166 218.918348,177.153088 218.39177,178.527567 L218.39177,178.527567 L198.511999,230.416755 L198.441091,230.620896 C198.013132,232.010848 198.728975,233.505192 200.082754,234.030451 C201.4999,234.580296 203.092291,233.869623 203.639932,232.440165 L203.639932,232.440165 L223.519703,180.550977 L223.590611,180.346835 C224.01857,178.956884 223.302727,177.46254 221.948948,176.937281 L221.948948,176.937281 Z M233.896677,184.63519 L255.999286,204.859314 C256.312844,205.146222 256.325578,205.636094 256.02735,205.938906 L234.056243,228.247724 L233.854913,228.4389 C232.158725,229.934752 229.627673,229.849461 228.050183,228.247724 L227.86193,228.04333 L227.720426,227.869146 C226.402463,226.159695 226.531018,223.724468 228.050183,222.181952 L244.276118,205.707 L228.209776,191.008613 L228.011253,190.814352 C226.458467,189.178926 226.411292,186.626942 227.898761,184.950954 C229.467269,183.183655 232.155245,183.04176 233.896677,184.63519 Z M188.132854,183.600707 C189.874287,182.007278 192.562262,182.149173 194.130771,183.916471 C195.61824,185.592459 195.571065,188.144443 194.018279,189.779869 L194.018279,189.779869 L193.819752,189.974134 L177.753,204.673 L193.979348,221.147469 C195.498514,222.689985 195.627068,225.125212 194.309105,226.834663 L194.309105,226.834663 L194.167602,227.008848 L193.979348,227.213241 C192.401858,228.814978 189.870806,228.900269 188.174618,227.404418 L188.174618,227.404418 L187.973288,227.213241 L166.002181,204.904423 C165.703954,204.601612 165.716688,204.11174 166.030245,203.824831 L166.030245,203.824831 Z M229.150894,185.809433 L229.020638,185.94664 C228.050831,187.039359 228.081719,188.710302 229.080695,189.762881 L229.241486,189.920093 L245.862373,205.126281 C246.175959,205.413188 246.188701,205.903089 245.890452,206.205909 L229.11889,223.234504 C228.094915,224.274218 228.040321,225.944519 228.984474,227.048747 L229.137051,227.214271 C230.136949,228.228879 231.76334,228.283684 232.84343,227.331562 L233.006354,227.176726 L254.413118,205.44 L232.884086,185.741833 C231.807607,184.756843 230.176573,184.799534 229.150894,185.809433 Z M192.878637,184.774951 C191.852959,183.765052 190.221925,183.72236 189.145445,184.707351 L189.145445,184.707351 L167.616,204.406 L189.023178,226.142243 L189.186102,226.297079 C190.266191,227.249202 191.892583,227.194396 192.89248,226.179788 L192.89248,226.179788 L193.045057,226.014265 C193.98921,224.910037 193.934616,223.239735 192.910645,222.200025 L192.910645,222.200025 L176.138845,205.17143 C175.840591,204.86861 175.853332,204.378703 176.166924,204.091795 L176.166924,204.091795 L192.788045,188.88561 L192.948836,188.728398 C193.947813,187.675819 193.978701,186.004877 193.008893,184.912157 L193.008893,184.912157 Z M316,109.5 L113.755,109.5 L113.978,144.75 L317.5,144.75 L317.5,111 C317.5,110.220304 316.905112,109.579551 316.14446,109.506867 L316,109.5 Z M45.5,94 C46.8807119,94 48,95.1192881 48,96.5 C48,97.8807119 46.8807119,99 45.5,99 C44.1192881,99 43,97.8807119 43,96.5 C43,95.1192881 44.1192881,94 45.5,94 Z M55.5,94 C56.8807119,94 58,95.1192881 58,96.5 C58,97.8807119 56.8807119,99 55.5,99 C54.1192881,99 53,97.8807119 53,96.5 C53,95.1192881 54.1192881,94 55.5,94 Z M65.5,94 C66.8807119,94 68,95.1192881 68,96.5 C68,97.8807119 66.8807119,99 65.5,99 C64.1192881,99 63,97.8807119 63,96.5 C63,95.1192881 64.1192881,94 65.5,94 Z"></path>
    </g>
</svg>